<?xml version="1.0" standalone="no"?>
<!DOCTYPE svg PUBLIC "-//W3C//DTD SVG 20010904//EN"
 "http://www.w3.org/TR/2001/REC-SVG-20010904/DTD/svg10.dtd">
<svg version="1.0" xmlns="http://www.w3.org/2000/svg"
 width="960.000000pt" height="960.000000pt" viewBox="0 0 960.000000 960.000000"
 preserveAspectRatio="xMidYMid meet">
<metadata>
Created by potrace 1.11, written by Peter Selinger 2001-2013
</metadata>
<g transform="translate(0.000000,960.000000) scale(0.100000,-0.100000)"
fill="#000000" stroke="none">
<path d="M8230 7310 c-8 -5 -10 -10 -5 -10 6 0 17 5 25 10 8 5 11 10 5 10 -5
0 -17 -5 -25 -10z"/>
<path d="M7275 7161 c-9 -15 -66 -41 -77 -35 -5 3 -25 -8 -46 -26 -20 -17 -43
-36 -50 -41 -7 -6 -26 -12 -42 -13 -22 -2 -31 4 -40 22 -9 20 -13 22 -25 12
-8 -7 -15 -19 -15 -26 0 -8 -7 -14 -16 -14 -11 0 -14 -5 -10 -16 3 -9 6 -27 6
-40 0 -15 6 -24 15 -24 8 0 15 -7 15 -16 0 -8 6 -22 14 -29 7 -7 13 -26 12
-42 -1 -38 -30 -38 -34 1 -2 16 -12 38 -23 49 -10 11 -19 28 -19 38 0 26 -29
89 -41 89 -7 0 -10 15 -7 40 2 22 0 40 -4 40 -5 0 -8 -16 -8 -35 0 -22 -6 -38
-14 -41 -8 -3 -13 -11 -10 -18 6 -15 -41 -60 -54 -52 -22 13 -29 -84 -9 -127
12 -27 13 -28 97 -26 66 2 86 -1 88 -12 4 -20 67 -49 107 -49 19 0 35 -4 35
-10 0 -5 5 -10 12 -10 7 0 25 -12 40 -27 l28 -27 0 24 c0 19 3 21 12 12 18
-18 46 -14 58 8 15 29 68 27 80 -2 5 -13 9 -17 9 -10 1 10 5 10 24 0 12 -7 25
-17 28 -21 3 -5 12 -9 20 -11 8 -1 30 -7 49 -13 19 -7 60 -12 90 -12 30 0 79
-3 109 -6 57 -6 81 5 81 35 0 9 12 23 28 30 15 8 34 20 43 27 34 28 214 123
232 123 8 0 21 7 28 16 12 15 11 16 -11 9 -14 -4 -40 -14 -59 -21 -43 -18 -44
-18 -32 5 9 16 7 18 -17 14 -25 -4 -25 -3 -8 8 11 7 39 11 62 10 24 0 45 3 48
8 3 4 26 14 51 21 25 7 45 16 45 20 0 5 -20 2 -44 -5 -25 -8 -46 -10 -48 -5
-5 13 -111 -26 -128 -48 -8 -10 -21 -17 -27 -15 -6 2 -28 -3 -48 -11 -47 -20
-55 -20 -55 -1 0 9 9 15 24 15 14 0 27 4 30 8 6 10 -60 8 -91 -3 -13 -4 -23
-11 -23 -16 0 -5 -13 -6 -28 -3 -16 3 -45 -1 -67 -10 -21 -9 -40 -14 -43 -11
-7 6 -9 5 71 44 37 19 67 37 67 42 0 6 46 22 75 24 19 2 83 33 89 44 4 6 -14
2 -39 -9 -50 -21 -53 -10 -3 16 16 8 27 18 24 21 -6 7 -79 -27 -84 -39 -2 -5
-11 -8 -20 -8 -15 1 -14 3 2 15 27 21 12 31 -21 15 -16 -8 -44 -15 -63 -18
-19 -2 -55 -14 -80 -26 -25 -13 -51 -21 -59 -18 -8 3 -11 0 -7 -7 4 -6 3 -11
-3 -11 -5 0 -13 5 -16 10 -3 6 -12 10 -18 10 -7 0 -4 -5 6 -11 9 -5 17 -14 17
-19 0 -16 -30 -11 -36 5 -7 17 -54 21 -54 5 0 -5 -6 -10 -14 -10 -8 0 -17 -6
-19 -12 -3 -8 -6 -6 -6 5 -2 32 29 64 110 117 43 28 79 53 79 56 0 11 -30 2
-51 -17 -18 -15 -33 -19 -57 -15 -22 3 -32 1 -30 -6 3 -7 -24 -26 -59 -44 -36
-18 -59 -34 -52 -36 7 -2 9 -10 5 -16 -4 -7 -12 -10 -17 -7 -13 9 -11 39 5 71
31 58 -3 53 -52 -8 l-30 -38 -4 30 c-2 16 -1 27 4 24 5 -3 6 6 3 19 -4 16 -2
28 7 34 12 7 38 47 38 58 0 2 -11 0 -25 -5 -19 -7 -23 -6 -18 5 6 17 -2 20
-12 6z m-455 -211 c0 -5 -4 -10 -10 -10 -5 0 -10 5 -10 10 0 6 5 10 10 10 6 0
10 -4 10 -10z m60 -60 c0 -5 -4 -10 -10 -10 -5 0 -10 5 -10 10 0 6 5 10 10 10
6 0 10 -4 10 -10z m156 -87 c-11 -11 -19 6 -11 24 8 17 8 17 12 0 3 -10 2 -21
-1 -24z"/>
<path d="M7518 7093 c7 -3 16 -2 19 1 4 3 -2 6 -13 5 -11 0 -14 -3 -6 -6z"/>
<path d="M8650 7084 c0 -3 5 -14 10 -25 10 -17 7 -19 -19 -19 -29 0 -49 -15
-37 -28 4 -3 34 -7 68 -8 35 -1 64 -6 66 -13 7 -20 30 -12 25 9 -3 11 0 20 6
20 24 0 9 32 -19 43 -16 6 -30 15 -30 19 0 4 -16 8 -35 8 -19 0 -35 -3 -35 -6z"/>
<path d="M7825 7060 c-13 -6 -15 -9 -5 -9 8 0 22 4 30 9 18 12 2 12 -25 0z"/>
<path d="M7555 7010 c-8 -13 15 -13 35 0 12 8 11 10 -7 10 -12 0 -25 -4 -28
-10z"/>
<path d="M8508 6943 c12 -2 30 -2 40 0 9 3 -1 5 -23 4 -22 0 -30 -2 -17 -4z"/>
<path d="M8320 6931 c-27 -4 -39 -9 -29 -12 8 -4 28 -5 43 -2 17 4 31 1 36 -7
5 -9 17 -10 36 -5 21 6 24 9 12 12 -10 3 -18 9 -18 14 0 10 -8 10 -80 0z"/>
<path d="M8445 6930 c-3 -5 1 -10 9 -10 8 0 18 5 21 10 3 6 -1 10 -9 10 -8 0
-18 -4 -21 -10z"/>
<path d="M8145 6868 c-37 -13 -38 -14 -31 -27 4 -6 16 -5 34 3 15 7 38 18 52
24 l25 11 -25 0 c-14 -1 -38 -5 -55 -11z"/>
<path d="M8275 6873 c-44 -10 -130 -45 -154 -63 -15 -10 -54 -24 -88 -31 -34
-7 -59 -17 -56 -22 7 -12 -16 -27 -42 -26 -18 0 -18 1 -3 12 15 10 15 12 0 23
-14 10 -12 13 16 19 18 3 32 11 32 16 0 15 -20 10 -53 -13 -31 -23 -90 -57
-134 -80 -14 -7 -23 -20 -23 -35 0 -20 5 -23 38 -24 92 -3 317 3 335 10 24 9
77 2 77 -10 0 -5 24 -9 53 -9 51 0 109 20 122 41 4 5 13 9 22 9 8 0 27 9 41
21 l27 21 -30 -7 c-27 -6 -28 -5 -10 6 11 7 44 20 74 29 33 11 48 19 38 23
-15 5 -98 -21 -113 -36 -4 -4 -17 -7 -28 -7 -17 0 -18 -2 -6 -10 22 -14 8 -20
-33 -13 -28 4 -35 9 -27 18 5 6 7 14 4 17 -7 7 45 48 61 48 7 0 18 7 25 15 11
13 5 15 -43 15 -50 0 -56 2 -59 23 -3 23 -24 30 -63 20z m-175 -157 c0 -3 -4
-8 -10 -11 -5 -3 -10 -1 -10 4 0 6 5 11 10 11 6 0 10 -2 10 -4z m-210 -26 c0
-5 -4 -10 -10 -10 -5 0 -10 5 -10 10 0 6 5 10 10 10 6 0 10 -4 10 -10z m-35
-19 c3 -5 1 -12 -5 -16 -5 -3 -10 1 -10 9 0 18 6 21 15 7z"/>
<path d="M8680 6870 c8 -5 22 -9 30 -9 10 0 8 3 -5 9 -27 12 -43 12 -25 0z"/>
<path d="M8731 6856 c-9 -11 -5 -15 23 -20 31 -6 54 -31 41 -44 -3 -3 -5 0 -5
6 0 7 -15 12 -34 12 l-34 0 13 -51 c10 -36 10 -48 2 -40 -16 16 -37 14 -58 -5
-10 -9 -31 -17 -47 -18 -16 -1 -36 -7 -45 -14 -12 -11 -15 -10 -13 5 1 21 -29
20 -84 -4 -45 -19 -71 -30 -90 -37 -8 -3 7 -3 34 1 35 4 47 3 42 -6 -4 -6 -15
-11 -24 -12 -11 0 -9 -4 9 -12 14 -7 32 -17 40 -24 8 -6 26 -14 41 -18 16 -4
26 -10 24 -14 -2 -3 14 -19 35 -36 21 -16 38 -37 39 -45 1 -23 46 -50 87 -53
36 -2 38 0 35 26 -3 31 14 36 34 10 19 -27 29 -7 13 25 -14 27 -49 64 -88 92
-12 8 -21 19 -21 26 0 6 -10 16 -22 22 -19 9 -14 10 27 5 l50 -5 -30 22 c-29
21 -29 22 -5 16 14 -3 30 -6 36 -6 12 0 40 -67 36 -85 -1 -7 5 -18 13 -25 8
-7 15 -18 15 -26 0 -7 8 -18 19 -23 10 -6 33 -33 51 -61 18 -28 41 -55 51 -61
17 -9 19 -6 16 21 -2 16 -7 33 -10 37 -4 3 -7 15 -7 25 0 10 -7 18 -16 18 -13
0 -15 8 -12 38 2 26 -2 44 -13 56 -17 17 -31 67 -23 75 3 3 18 -10 34 -27 28
-31 50 -41 50 -23 0 6 -4 12 -9 15 -5 3 -12 22 -16 43 -9 52 -55 148 -77 162
-14 9 -18 8 -18 -4 0 -21 -7 -19 -38 11 -41 38 -58 46 -71 30z m45 -83 c-7 -7
-26 7 -26 19 0 6 6 6 15 -2 9 -7 13 -15 11 -17z"/>
<path d="M8060 6820 c-22 -6 -23 -8 -7 -15 11 -4 23 -3 30 4 15 15 7 19 -23
11z"/>
<path d="M8488 6823 c6 -2 18 -2 25 0 6 3 1 5 -13 5 -14 0 -19 -2 -12 -5z"/>
<path d="M6888 6793 c7 -3 16 -2 19 1 4 3 -2 6 -13 5 -11 0 -14 -3 -6 -6z"/>
<path d="M8638 6743 c-26 -7 -22 -23 6 -23 13 0 26 7 30 15 5 15 -3 17 -36 8z"/>
<path d="M8752 6598 c2 -6 10 -14 16 -16 7 -2 10 2 6 12 -7 18 -28 22 -22 4z"/>
<path d="M6670 6500 c0 -5 4 -10 9 -10 5 0 18 -3 28 -7 17 -6 17 -6 1 10 -18
19 -38 22 -38 7z"/>
<path d="M6630 6455 c-10 -12 -10 -19 -2 -27 13 -13 42 6 42 28 0 19 -24 18
-40 -1z"/>
<path d="M6580 6405 c-18 -21 -3 -32 16 -13 10 9 12 18 6 22 -5 3 -15 -1 -22
-9z"/>
<path d="M8800 6401 c0 -11 3 -21 8 -23 4 -1 18 -16 31 -33 26 -33 26 -30 -4
32 -21 46 -35 55 -35 24z"/>
<path d="M6615 6374 c-11 -8 -27 -13 -37 -11 -15 4 -34 -30 -23 -42 3 -2 5 1
5 7 0 6 6 9 14 6 7 -3 26 6 42 20 32 27 31 43 -1 20z"/>
<path d="M6527 6337 c-3 -9 -13 -14 -21 -11 -18 7 -23 -1 -30 -51 -5 -28 -4
-34 3 -20 5 11 21 33 35 49 15 15 25 33 23 39 -2 6 -6 3 -10 -6z"/>
<path d="M8800 6292 c0 -7 13 -26 30 -44 16 -18 29 -28 30 -23 0 6 -14 25 -30
44 -17 18 -30 29 -30 23z"/>
<path d="M8884 6288 c-3 -5 2 -15 12 -22 9 -7 14 -18 10 -24 -3 -5 0 -23 8
-39 8 -15 17 -36 20 -45 7 -24 26 -23 26 2 0 10 7 23 16 28 14 8 14 12 -1 48
-12 30 -23 42 -50 50 -22 7 -38 8 -41 2z m76 -39 c0 -5 -7 -9 -15 -9 -8 0 -15
7 -15 15 0 9 6 12 15 9 8 -4 15 -10 15 -15z"/>
<path d="M6545 6263 c-11 -3 -28 -15 -37 -26 -19 -23 -25 -72 -8 -62 6 3 10
15 10 26 0 14 12 26 40 37 56 24 53 39 -5 25z"/>
<path d="M6547 6202 c-10 -10 -17 -24 -17 -30 0 -7 -4 -12 -9 -12 -14 0 -38
-74 -56 -165 -8 -44 -17 -90 -21 -102 -4 -14 -2 -23 4 -23 6 0 16 19 23 43 6
23 14 53 18 67 4 14 7 43 6 65 0 36 2 40 25 41 14 1 19 -1 13 -3 -18 -6 -16
-64 2 -87 8 -11 15 -18 16 -15 5 30 7 131 3 126 -4 -3 -13 1 -22 9 -13 14 -13
17 3 32 16 16 17 16 10 -7 -5 -17 -4 -21 5 -16 6 4 9 16 6 28 -3 11 0 29 5 39
14 27 6 32 -14 10z"/>
<path d="M6441 6194 c0 -11 3 -14 6 -6 3 7 2 16 -1 19 -3 4 -6 -2 -5 -13z"/>
<path d="M8857 6145 c3 -19 1 -40 -5 -47 -7 -9 -6 -17 3 -25 8 -7 16 -9 20 -4
3 5 -1 11 -7 14 -7 2 -10 8 -5 12 11 13 22 -4 23 -36 3 -58 4 -65 27 -102 l23
-37 -2 67 c0 38 -4 75 -7 83 -3 8 -8 27 -11 42 -3 15 -19 36 -35 48 l-30 21 6
-36z"/>
<path d="M6431 6144 c0 -11 3 -14 6 -6 3 7 2 16 -1 19 -3 4 -6 -2 -5 -13z"/>
<path d="M6575 6090 c-3 -5 -1 -10 4 -10 6 0 11 5 11 10 0 6 -2 10 -4 10 -3 0
-8 -4 -11 -10z"/>
<path d="M8848 6034 c-5 -4 -8 -23 -8 -43 0 -33 -26 -116 -52 -169 -6 -12 -11
-48 -11 -80 0 -31 1 -77 1 -102 1 -24 -4 -50 -10 -57 -8 -10 -3 -13 25 -13 30
0 36 5 48 33 15 36 39 65 39 47 0 -7 6 -6 15 4 10 9 15 34 15 69 0 31 5 57 10
59 7 2 5 24 -5 65 -9 33 -15 65 -13 70 4 13 -23 83 -32 83 -5 0 -10 9 -12 21
-2 11 -6 17 -10 13z"/>
<path d="M2590 5999 c-25 -3 -56 -10 -70 -16 -40 -17 -95 -33 -111 -33 -31 0
-46 -35 -43 -98 1 -34 -1 -64 -7 -67 -5 -4 -9 -17 -9 -29 0 -13 -7 -29 -15
-36 -8 -7 -15 -19 -15 -26 0 -8 -7 -14 -15 -14 -22 0 -37 -37 -29 -73 8 -38
35 -75 50 -70 6 2 14 -6 17 -18 5 -18 11 -21 39 -15 18 3 53 9 78 13 25 3 54
12 65 19 11 8 27 14 36 14 9 0 19 6 22 14 10 26 96 58 160 61 56 2 245 19 354
31 75 9 63 69 -22 112 -70 35 -89 40 -142 35 -43 -5 -55 -2 -74 16 -13 11 -31
21 -41 21 -11 0 -18 7 -18 19 0 22 -63 63 -83 55 -16 -6 -74 48 -79 73 -3 15
-10 17 -48 12z"/>
<path d="M6512 5970 c0 -19 2 -27 5 -17 2 9 2 25 0 35 -3 9 -5 1 -5 -18z"/>
<path d="M6553 5935 c-6 -14 -7 -25 -2 -25 11 0 22 25 17 39 -1 6 -8 -1 -15
-14z"/>
<path d="M6496 5823 c-4 -13 -11 -23 -15 -23 -9 0 -31 -45 -31 -62 0 -18 29
12 46 48 9 18 14 39 12 46 -3 8 -8 4 -12 -9z"/>
<path d="M7861 5764 c-24 -14 -57 -26 -72 -26 -16 -1 -29 -7 -31 -14 -2 -10
-10 -10 -38 3 -19 10 -37 20 -40 24 -13 17 -49 19 -64 4 -10 -11 -16 -12 -16
-4 0 9 -16 10 -61 6 -33 -4 -58 -3 -55 2 3 4 -7 7 -22 6 -15 -1 -44 -3 -65 -3
-21 -1 -36 -5 -34 -9 3 -5 -25 -7 -61 -6 l-67 2 72 -13 c64 -12 231 -81 221
-92 -3 -2 -36 11 -74 30 -141 70 -346 76 -468 14 -57 -29 -106 -86 -105 -123
l1 -30 11 33 c16 44 58 86 112 112 55 26 158 39 170 20 6 -9 -1 -11 -28 -8
-20 2 -34 2 -32 -1 3 -2 -3 -9 -12 -16 -9 -7 -16 -26 -16 -44 0 -19 -5 -31
-14 -31 -7 0 -13 -5 -13 -10 0 -13 -46 -32 -77 -32 -23 -1 -39 -34 -19 -42 6
-2 1 -5 -11 -5 -28 -1 -41 -21 -14 -21 28 0 27 -16 -1 -25 -22 -6 -22 -7 6
-15 16 -5 33 -7 37 -5 15 10 149 14 154 5 4 -6 25 -10 48 -10 23 0 49 -5 57
-10 12 -8 11 -13 -10 -32 -19 -18 -36 -23 -80 -23 -69 -1 -108 -16 -88 -33 88
-72 403 -41 449 45 10 18 16 20 31 12 26 -14 48 -4 48 21 0 19 -1 20 -24 5
-18 -12 -26 -13 -31 -5 -9 14 12 35 43 45 19 6 22 3 22 -23 0 -73 -58 -187
-125 -244 -37 -33 -124 -68 -185 -76 -122 -17 -241 19 -320 97 -65 65 -92 134
-92 242 0 68 -14 79 -20 17 -16 -155 95 -311 255 -360 165 -50 364 17 447 150
16 26 30 41 30 34 0 -7 -7 -24 -16 -37 -9 -13 -14 -30 -12 -36 5 -16 40 44 67
115 23 61 26 80 12 72 -5 -3 -12 11 -16 30 -6 33 -3 40 25 65 36 34 35 34 -15
13 -20 -8 -39 -13 -42 -10 -11 10 7 36 24 36 17 0 43 40 43 65 0 17 34 45 53
45 9 0 21 9 27 20 12 23 32 17 28 -9 -1 -9 7 -30 18 -46 12 -17 20 -37 19 -47
-2 -13 9 -18 55 -23 39 -4 61 -12 64 -22 5 -12 1 -14 -21 -9 -16 4 -50 9 -78
11 -27 2 -40 1 -28 -1 13 -3 28 -13 35 -23 7 -10 23 -21 36 -25 24 -8 28 -22
12 -46 -8 -12 -10 -10 -11 10 0 23 -1 23 -8 5 -5 -11 -6 -26 -4 -32 3 -7 0
-13 -7 -13 -37 0 42 -231 81 -238 21 -4 19 45 -2 80 -22 35 -40 80 -35 86 3 2
17 -20 31 -49 30 -64 63 -102 121 -139 24 -15 40 -31 36 -35 -4 -5 -2 -5 4 -2
7 4 31 0 55 -9 101 -37 267 -17 354 42 20 13 42 21 48 18 7 -4 9 -4 5 1 -4 4
9 26 28 48 45 49 69 103 84 187 6 36 15 77 20 92 6 21 5 25 -6 21 -8 -3 -14 0
-14 6 0 6 20 10 48 9 l47 -1 -30 -13 -30 -13 43 -1 c31 0 42 4 42 15 0 9 6 15
13 14 23 -3 37 1 37 10 0 6 -12 6 -27 2 -44 -12 -165 -1 -159 14 8 23 -70 101
-124 124 -77 33 -245 47 -337 27 -81 -16 -154 -50 -217 -98 l-41 -32 30 33
c59 65 216 119 360 123 42 1 55 3 32 5 -20 2 -35 8 -32 14 5 8 -40 11 -125 9
-169 -4 -231 0 -252 14 -28 20 -24 20 -77 -10z m742 -173 c26 -38 32 -58 35
-112 5 -88 -11 -160 -50 -219 -82 -126 -251 -187 -403 -146 -67 17 -144 57
-179 92 -40 41 -82 132 -67 147 8 8 11 4 11 -16 0 -15 5 -27 10 -27 6 0 10
-10 10 -22 0 -12 3 -18 7 -15 3 4 13 1 22 -7 32 -27 109 -27 114 0 1 5 16 8
32 6 150 -16 276 7 298 55 6 13 14 23 19 23 4 0 -2 11 -14 25 -12 14 -26 25
-32 25 -6 0 -17 10 -25 21 -12 20 -11 21 6 14 10 -4 37 -10 61 -12 23 -3 45
-10 48 -14 10 -16 47 -9 65 13 21 23 24 32 9 23 -5 -3 -10 1 -10 10 0 9 5 13
10 10 11 -7 12 -5 16 45 1 19 -4 45 -12 58 -8 12 -12 27 -9 32 3 5 0 12 -6 16
-8 5 -9 3 -4 -7 5 -8 6 -12 2 -9 -3 3 -5 8 -4 12 1 4 -7 14 -18 22 -20 15 -20
15 3 9 12 -3 37 -26 55 -52z m-658 -151 c8 0 15 -7 15 -16 0 -11 -5 -14 -16
-10 -9 3 -20 6 -25 6 -5 0 -9 12 -9 28 1 23 2 24 11 10 5 -10 17 -18 24 -18z
m-334 -87 c-12 -20 -14 -14 -5 12 4 9 9 14 11 11 3 -2 0 -13 -6 -23z m276 5
c-3 -8 -6 -5 -6 6 -1 11 2 17 5 13 3 -3 4 -12 1 -19z"/>
<path d="M7980 5261 c0 -6 4 -13 10 -16 6 -3 7 1 4 9 -7 18 -14 21 -14 7z"/>
<path d="M4435 5718 c-9 -23 -2 -61 11 -65 19 -6 27 48 10 65 -14 14 -16 14
-21 0z"/>
<path d="M1745 5713 c-11 -2 -30 -6 -42 -9 -13 -2 -23 -10 -23 -17 0 -27 -49
-110 -84 -143 -51 -48 -66 -52 -209 -56 l-125 -3 -34 38 c-28 30 -41 37 -71
37 -20 0 -37 -3 -37 -7 0 -14 -53 -33 -88 -33 l-35 0 5 -52 c3 -29 1 -63 -5
-75 -8 -17 -6 -38 7 -81 25 -82 20 -111 -26 -129 -33 -13 -40 -13 -82 7 -26
11 -44 25 -41 29 3 5 -9 23 -25 41 -17 18 -30 40 -30 50 0 10 -6 20 -12 22
-14 5 -21 48 -19 116 1 23 -2 41 -6 40 -19 -3 -43 16 -43 34 0 25 -27 47 -57
48 -20 0 -23 -5 -23 -43 0 -24 -4 -47 -9 -53 -4 -5 -16 -33 -27 -61 -12 -37
-23 -53 -36 -53 -20 0 -48 -47 -46 -77 3 -31 -23 -87 -33 -71 -6 9 -9 3 -9
-17 0 -19 -7 -35 -20 -43 -12 -7 -25 -24 -30 -37 -10 -27 -30 -34 -30 -10 0
23 -20 18 -42 -10 -11 -14 -25 -25 -31 -25 -16 0 -87 -66 -87 -80 0 -6 -8 -10
-18 -8 -10 2 -16 -2 -14 -10 2 -9 -7 -13 -25 -12 -43 3 -55 1 -48 -10 6 -10
-45 -40 -70 -40 -8 0 -15 -5 -15 -11 0 -7 -11 -22 -25 -35 -23 -21 -25 -30
-25 -109 0 -50 4 -85 10 -85 6 0 10 -7 10 -15 0 -8 5 -15 10 -15 6 0 10 -8 10
-17 -1 -17 -1 -17 -14 0 -7 9 -16 17 -20 17 -3 0 -6 -225 -6 -500 0 -487 1
-501 20 -522 28 -30 28 -110 0 -138 -20 -20 -20 -33 -20 -1750 l0 -1730 4800
0 4800 0 0 1443 0 1444 -40 12 c-22 6 -40 15 -40 20 0 4 18 16 40 26 l40 18 0
140 c0 129 -1 139 -17 132 -46 -20 -128 -45 -147 -45 -12 0 -29 -7 -38 -14
-15 -11 -16 -17 -5 -45 11 -29 10 -35 -8 -49 -12 -10 -24 -25 -28 -34 -3 -10
-12 -18 -18 -18 -19 0 -56 46 -69 87 -7 21 -18 45 -25 53 -8 8 -16 27 -20 41
-4 15 -18 36 -31 48 -31 27 -30 37 7 60 57 35 88 121 44 121 -8 0 -16 9 -20
19 -3 12 -18 21 -37 23 -25 4 -38 -2 -67 -28 -47 -45 -68 -51 -92 -25 -11 12
-31 28 -44 37 -14 9 -25 23 -25 30 0 8 -10 14 -22 15 -21 0 -21 1 -4 8 13 5
16 10 8 15 -6 3 -9 13 -6 21 4 8 10 12 15 9 5 -3 12 8 15 24 4 20 16 34 40 45
19 9 34 21 34 26 0 15 60 38 101 40 58 2 173 29 184 43 6 7 29 23 52 36 36 19
51 21 98 16 31 -4 62 -12 68 -19 7 -6 22 -14 35 -17 l22 -6 0 618 0 619 -37
10 c-21 6 -43 11 -49 11 -16 0 -47 49 -41 65 3 7 33 25 66 41 l61 29 0 102 c0
61 -4 103 -10 103 -5 0 -17 12 -27 27 -13 20 -14 28 -5 31 32 10 42 35 42 98
0 35 -3 64 -7 64 -5 0 -30 -7 -58 -15 -46 -14 -53 -14 -87 1 -21 9 -40 25 -43
35 -7 21 -68 69 -88 69 -8 0 -20 -7 -27 -15 -7 -8 -17 -15 -22 -15 -15 0 -58
-36 -51 -43 9 -10 -44 -20 -81 -15 -20 2 -32 0 -29 -6 3 -5 -3 -16 -13 -24
-13 -9 -15 -16 -7 -19 7 -2 9 -11 6 -19 -5 -13 -7 -13 -15 -2 -6 8 -7 -14 -3
-58 6 -63 4 -79 -20 -135 -58 -139 -78 -206 -83 -277 -4 -56 -8 -72 -18 -68
-9 3 -14 -2 -14 -14 0 -11 -4 -20 -8 -20 -11 0 -66 -119 -59 -127 4 -3 13 0
21 6 8 7 19 10 24 7 11 -7 82 68 82 87 0 24 33 30 159 26 126 -4 161 -18 156
-62 -6 -54 -28 -147 -35 -147 -4 0 -15 -18 -25 -39 -18 -42 -40 -58 -49 -38
-3 8 -5 8 -5 1 -1 -16 -46 -5 -70 17 -11 10 -34 19 -51 19 -33 0 -120 -37
-120 -51 0 -5 -18 -9 -40 -9 -34 0 -40 3 -40 20 0 24 -26 38 -42 22 -7 -7 -5
-18 7 -35 15 -24 15 -26 -14 -46 -16 -12 -34 -21 -40 -21 -18 0 -13 -16 16
-44 28 -29 28 -32 -2 -38 -15 -2 -19 2 -18 19 3 27 -13 40 -56 45 -34 4 -39 9
-59 58 -10 22 -11 20 -11 -22 -1 -26 -6 -50 -11 -53 -5 -3 -10 -13 -10 -21 0
-9 -7 -22 -15 -30 -8 -9 -15 -25 -15 -36 0 -12 -16 -54 -36 -95 -30 -60 -34
-76 -24 -88 7 -8 8 -15 3 -15 -5 0 -15 -16 -21 -36 -18 -61 22 -120 98 -142
28 -8 84 -2 92 11 7 11 12 2 9 -16 -1 -5 2 -6 7 -3 11 7 55 -38 45 -47 -3 -4
-1 -7 5 -7 7 0 12 -12 12 -28 0 -20 -7 -30 -29 -40 -16 -7 -31 -21 -34 -31 -3
-14 -17 -19 -63 -23 -37 -3 -62 -1 -66 6 -5 8 -11 7 -20 -2 -18 -18 -26 -15
-31 16 -3 19 -4 15 -6 -15 0 -23 -5 -45 -11 -48 -5 -3 -8 -25 -6 -48 6 -56 6
-55 17 -32 7 16 8 13 3 -11 -4 -23 -1 -33 10 -37 20 -8 21 -27 1 -27 -9 0 -15
-9 -15 -25 0 -14 -4 -25 -10 -25 -5 0 -10 -20 -10 -45 0 -37 6 -52 35 -84 66
-73 68 -198 5 -323 -32 -62 -128 -198 -140 -198 -4 0 -23 -13 -41 -30 -19 -16
-40 -30 -46 -30 -7 0 -13 -5 -13 -12 0 -6 -3 -8 -6 -5 -4 4 -2 13 4 20 7 8 9
17 5 21 -4 4 -1 11 7 17 13 8 13 11 -2 23 -10 7 -18 23 -18 35 0 13 -6 21 -16
21 -22 0 -11 57 16 82 21 20 26 43 10 53 -5 3 -13 20 -19 38 -5 18 -12 40 -16
50 -5 12 -2 17 9 17 24 0 19 18 -13 50 -23 24 -26 31 -15 41 7 6 17 8 23 5 5
-4 13 4 17 16 4 13 14 28 23 35 20 14 7 30 -29 35 -18 2 -26 11 -31 35 -3 18
-3 30 1 28 5 -3 10 16 12 43 4 34 -1 57 -15 84 -19 35 -19 39 -4 56 24 27 21
51 -8 58 -18 4 -25 13 -25 30 0 13 5 24 10 24 6 0 10 6 9 13 -1 6 -1 17 0 23
1 10 64 98 101 141 5 7 10 19 10 28 0 9 7 18 15 21 8 4 15 10 15 15 0 11 60
99 68 99 13 0 47 83 44 106 -2 13 1 31 6 41 5 10 12 35 16 56 6 30 4 37 -9 37
-8 0 -15 -8 -15 -17 -1 -17 -1 -17 -11 0 -5 9 -21 17 -33 17 -26 0 -40 23 -31
50 8 26 35 33 41 12 13 -40 25 -64 30 -59 8 8 -16 77 -27 77 -12 0 -12 57 1
65 6 3 10 25 11 48 1 61 13 92 31 89 9 -1 19 6 23 18 8 25 25 26 26 3 1 -10 7
2 15 27 14 45 11 100 -7 100 -5 0 -9 10 -9 23 0 16 -3 18 -9 8 -6 -10 -12 -5
-22 18 -14 32 -50 52 -57 32 -5 -14 -39 -15 -47 0 -4 6 -19 7 -36 4 -22 -5
-34 -1 -54 19 -14 14 -33 26 -42 26 -9 0 -21 7 -27 15 -10 13 -118 60 -197 85
-15 4 -43 16 -64 26 -36 17 -38 17 -51 -1 -19 -26 -18 -55 3 -55 27 0 61 -48
69 -96 3 -25 3 -48 0 -52 -4 -3 -26 -6 -49 -5 -161 4 -232 1 -243 -8 -7 -6
-18 -8 -24 -4 -6 4 -17 2 -25 -5 -7 -6 -42 -11 -77 -10 -35 0 -89 -1 -121 -4
-50 -4 -59 -2 -72 17 -22 32 -18 87 10 143 14 27 25 51 25 52 0 8 -125 -11
-130 -19 -3 -5 -37 -10 -76 -12 -80 -4 -94 -10 -94 -39 0 -11 -8 -22 -20 -25
-13 -3 -20 -14 -20 -28 0 -15 -8 -26 -20 -30 -22 -7 -28 -25 -8 -25 6 0 2 -9
-10 -20 -12 -12 -22 -25 -22 -31 0 -5 -8 -9 -17 -7 -14 2 -19 -5 -21 -36 -2
-21 1 -43 7 -49 6 -6 11 -21 11 -34 0 -13 5 -22 12 -20 8 1 11 -9 9 -30 -3
-43 7 -73 25 -73 11 0 13 -6 9 -20 -9 -27 -8 -137 1 -151 4 -7 7 -35 8 -64 2
-61 26 -105 59 -105 20 0 23 4 19 35 -3 26 0 36 12 41 10 4 14 13 11 24 -3 9
1 23 10 30 8 6 17 27 21 46 7 39 25 43 57 13 30 -29 96 -59 130 -59 15 0 35
-5 45 -10 9 -6 37 -19 62 -30 25 -11 60 -31 78 -44 l33 -24 -68 1 c-42 1 -80
-4 -101 -13 -30 -14 -32 -18 -30 -58 1 -32 -3 -46 -18 -57 -19 -14 -18 -15 7
-37 14 -13 24 -28 22 -34 -6 -19 67 -30 157 -24 47 3 130 0 184 -6 147 -18
226 -3 280 52 15 15 29 13 32 -4 6 -26 18 -52 25 -52 18 0 21 24 4 37 -18 12
-17 13 7 13 18 0 29 -7 33 -20 4 -11 15 -20 26 -20 11 0 22 -7 25 -14 8 -20
-40 -70 -60 -63 -11 4 -13 1 -9 -11 4 -9 11 -20 17 -24 6 -4 7 -10 4 -14 -4
-3 -15 2 -25 11 -14 14 -18 15 -22 4 -10 -33 -53 -39 -78 -10 -13 16 -20 17
-42 8 -14 -6 -32 -16 -40 -23 -9 -8 -21 -10 -37 -4 -17 7 -28 5 -38 -5 -18
-18 -57 -20 -53 -3 1 7 -11 12 -31 13 -21 0 -39 7 -47 19 -12 15 -17 17 -29 7
-8 -7 -27 -11 -42 -9 -17 2 -29 -2 -32 -11 -3 -8 0 -11 7 -7 6 4 11 2 11 -4 0
-7 -7 -9 -16 -6 -25 10 -62 -4 -67 -26 -5 -16 -11 -19 -32 -14 -19 5 -35 0
-57 -15 -30 -22 -32 -22 -60 -6 -34 20 -65 22 -70 5 -9 -27 -110 -13 -122 17
-3 8 -15 15 -26 15 -11 0 -20 7 -20 15 0 8 -6 12 -13 9 -7 -2 -19 7 -27 21
-15 28 -30 33 -30 10 0 -8 -4 -15 -10 -15 -5 0 -10 -13 -10 -30 0 -21 5 -30
17 -30 9 0 13 -3 10 -7 -9 -9 22 -43 40 -43 7 0 13 -9 13 -20 0 -11 5 -20 11
-20 6 0 23 -13 37 -28 15 -16 32 -31 37 -33 6 -2 23 -18 38 -36 35 -37 30 -65
-13 -83 -35 -14 -38 -26 -10 -35 34 -11 22 -23 -27 -30 -87 -11 -103 -16 -113
-35 -6 -11 -17 -17 -25 -14 -9 4 -15 0 -15 -9 0 -8 -12 -18 -27 -22 l-28 -7
29 -23 c16 -12 25 -28 22 -34 -5 -7 -1 -9 9 -5 11 5 14 2 9 -9 -3 -9 -20 -17
-37 -19 -30 -3 -32 -6 -38 -51 -3 -32 -1 -55 9 -68 12 -17 11 -19 -7 -19 -18
0 -21 -6 -21 -40 0 -38 2 -40 30 -40 27 0 30 -3 30 -32 -1 -18 -5 -53 -9 -78
-8 -39 -7 -46 11 -58 14 -10 18 -22 15 -40 -8 -39 2 -52 44 -58 28 -5 39 -11
39 -24 0 -10 6 -21 13 -23 9 -4 9 -6 -1 -6 -8 -1 7 -21 33 -46 25 -25 43 -50
40 -55 -6 -10 18 -44 80 -113 14 -15 25 -34 25 -42 0 -8 7 -15 15 -15 9 0 12
6 9 15 -4 9 0 15 10 15 9 0 16 -4 16 -9 0 -6 16 -7 36 -4 25 4 39 2 44 -8 7
-11 10 -10 16 4 7 18 39 23 49 7 3 -6 15 -5 31 2 23 11 28 9 45 -12 17 -23 19
-24 19 -5 0 18 5 20 40 17 32 -3 40 -1 40 12 0 11 9 16 29 16 59 0 89 11 95
36 5 20 13 24 46 24 30 0 40 4 40 16 0 8 4 13 9 10 5 -3 21 6 35 19 31 29 40
30 58 12 7 -8 20 -12 29 -10 18 5 35 -29 24 -47 -25 -40 -195 -140 -335 -197
-111 -45 -161 -54 -301 -54 -172 -1 -305 38 -459 134 -141 88 -244 179 -330
293 -25 32 -53 68 -63 79 -10 11 -28 36 -40 55 -11 19 -24 37 -28 40 -12 9
-89 152 -118 219 -55 127 -88 267 -76 322 4 19 43 63 118 135 109 103 112 108
119 157 3 29 11 88 18 132 25 174 38 504 20 515 -8 5 -9 18 -3 41 13 49 -7
281 -24 294 -8 6 -47 10 -86 9 -64 -2 -75 -5 -102 -31 -44 -42 -81 -63 -111
-63 -31 0 -106 52 -125 87 -29 54 -121 71 -159 31 -18 -19 -21 -31 -16 -70 7
-51 13 -41 -111 -174 -19 -20 -22 -35 -21 -90 l1 -66 44 -19 c55 -24 60 -24
108 1 45 23 94 25 149 5 21 -7 44 -11 50 -9 7 2 24 -9 40 -25 l28 -29 -27 -36
c-15 -19 -36 -38 -47 -42 -11 -3 -26 -21 -34 -39 -7 -19 -24 -49 -36 -67 -28
-40 -145 -158 -157 -158 -5 0 -11 -6 -13 -12 -6 -16 -76 -15 -107 1 -12 7 -24
25 -28 42 -3 16 -9 29 -14 29 -5 0 -9 9 -9 20 0 12 -7 32 -16 45 -9 13 -13 28
-10 34 7 11 -14 61 -26 61 -4 0 -8 19 -8 43 0 37 -6 50 -37 84 -53 56 -110 96
-128 89 -9 -3 -15 0 -15 9 0 9 -10 15 -24 15 -13 0 -31 3 -40 6 -10 4 -16 1
-16 -9 0 -16 -20 -21 -177 -47 -53 -8 -77 -9 -92 0 -20 10 -20 12 -6 47 14 34
14 38 -2 47 -18 11 -60 22 -119 33 -18 3 -43 -1 -60 -10 -16 -8 -52 -18 -79
-22 -28 -4 -66 -14 -85 -22 -19 -8 -44 -16 -55 -19 -11 -2 -27 -12 -35 -22 -8
-9 -23 -16 -32 -14 -9 2 -35 -8 -57 -22 -22 -14 -43 -26 -45 -26 -3 0 -18 -12
-35 -28 -22 -20 -34 -44 -45 -90 -15 -66 -22 -78 -68 -126 -25 -25 -35 -29
-81 -27 -41 1 -62 8 -97 33 -40 28 -54 32 -116 34 -122 3 -184 36 -198 108 -4
17 -9 44 -13 59 -13 64 -106 72 -164 16 -17 -16 -34 -29 -38 -29 -5 0 -12 -11
-15 -24 -5 -20 -11 -24 -38 -21 -57 5 -88 25 -88 56 0 22 6 30 25 35 14 3 25
12 25 20 0 8 9 19 20 26 31 19 25 53 -15 83 -19 15 -38 24 -44 21 -5 -3 -11 1
-15 9 -3 8 -10 15 -15 15 -14 0 -41 -95 -41 -145 0 -22 -5 -46 -12 -53 -9 -9
-7 -16 7 -32 16 -18 16 -20 2 -20 -20 0 -21 -9 -7 -45 7 -18 6 -31 -2 -45 -11
-17 -22 -19 -87 -16 -43 2 -77 9 -79 15 -2 6 -21 11 -42 11 -21 0 -40 5 -42
12 -2 6 -26 19 -53 27 -31 10 -54 24 -61 38 -6 13 -18 31 -27 41 -10 10 -14
22 -10 25 3 4 -2 16 -12 27 -24 26 -15 33 42 34 44 1 47 3 70 44 18 33 20 42
9 42 -8 0 -21 6 -28 13 -38 34 -123 77 -153 77 -48 0 -61 -91 -15 -103 14 -3
20 -13 20 -31 0 -14 -4 -26 -10 -26 -5 0 -10 -13 -10 -30 l0 -30 -94 0 c-53 0
-98 -4 -101 -10 -9 -15 -52 -12 -85 5 -16 8 -36 12 -44 9 -10 -4 -27 6 -46 24
-26 26 -30 28 -30 11 0 -10 -7 -19 -15 -19 -8 0 -15 -4 -15 -10 0 -5 -7 -10
-15 -10 -8 0 -15 -5 -15 -11 0 -41 -86 -52 -150 -19 -36 19 -39 23 -33 52 3
17 13 40 22 50 21 26 93 58 128 58 33 0 58 14 58 32 0 7 8 14 18 16 9 2 17 -1
17 -7 0 -6 5 -11 10 -11 6 0 10 7 10 15 0 8 3 14 8 14 4 -1 9 0 12 1 9 3 35 7
91 14 49 6 62 13 98 49 80 82 97 95 151 122 66 33 100 62 100 87 0 13 7 18 26
18 14 0 23 4 20 8 -9 14 8 28 57 46 26 10 45 22 42 27 -4 5 0 6 8 3 15 -5 87
60 87 79 0 5 18 25 40 44 47 41 50 58 13 87 -32 25 -93 39 -93 21 0 -12 -19
-30 -114 -106 -33 -27 -66 -49 -74 -49 -8 0 -27 -11 -43 -24 -15 -13 -33 -26
-38 -28 -5 -1 -11 -10 -13 -18 -6 -30 -158 -68 -158 -39 0 5 -4 8 -9 5 -5 -3
-14 1 -21 9 -7 8 -28 15 -47 15 -19 0 -53 9 -75 20 -23 11 -47 20 -54 20 -6 0
-14 9 -17 19 -10 38 -53 55 -136 53 -47 -1 -94 4 -124 14 -41 14 -56 14 -93 4
-24 -7 -54 -21 -65 -31 -12 -11 -30 -19 -39 -19 -9 0 -32 -8 -51 -17 -41 -21
-149 -31 -149 -14 0 7 -27 11 -79 11 -54 0 -81 4 -85 13 -4 8 -9 6 -18 -7 -7
-10 -23 -31 -35 -45 -19 -22 -22 -23 -23 -8 0 15 -7 12 -42 -17 -43 -37 -58
-44 -58 -26 0 6 -12 10 -27 10 -24 1 -32 10 -62 70 -18 38 -39 71 -47 74 -7 3
-11 12 -8 21 4 9 1 15 -7 15 -30 0 -59 151 -38 191 5 11 33 21 76 29 37 7 78
19 90 26 12 8 31 14 41 14 10 0 35 9 57 20 22 11 47 20 57 20 33 0 86 28 103
53 23 36 32 97 13 97 -8 0 -27 12 -44 28 -16 15 -46 39 -66 52 -21 14 -38 29
-38 34 0 26 -46 40 -95 29z m-1098 -265 c-3 -8 -6 -5 -6 6 -1 11 2 17 5 13 3
-3 4 -12 1 -19z m-167 -479 c0 -13 5 -19 13 -16 17 6 22 -27 19 -115 -2 -37
-7 -50 -24 -59 -45 -24 -55 27 -34 176 6 38 4 35 16 35 6 0 10 -9 10 -21z
m1233 -56 c-7 -2 -19 -2 -25 0 -7 3 -2 5 12 5 14 0 19 -2 13 -5z m-31 -61 c-2
-16 -13 -32 -25 -38 -12 -5 -21 -15 -19 -22 1 -7 -7 -12 -18 -12 -11 0 -20 -7
-20 -15 0 -17 -9 -19 -28 -7 -10 7 -10 15 -2 36 14 38 31 52 68 61 17 3 34 11
37 16 10 15 12 10 7 -19z m6891 -62 c-7 -28 -13 -25 -13 6 0 14 4 23 9 20 5
-3 7 -15 4 -26z m-1120 -32 c20 -21 37 -44 37 -52 0 -7 16 -28 36 -45 19 -18
34 -37 32 -43 -3 -8 -55 -13 -167 -15 l-164 -4 7 33 c4 19 21 47 41 65 19 18
35 37 35 43 0 6 11 16 25 22 14 6 25 16 25 22 0 26 56 10 93 -26z m627 -26 c0
-5 11 -14 25 -20 14 -6 25 -19 25 -27 0 -9 7 -30 16 -47 13 -25 14 -32 2 -39
-12 -9 -184 -2 -200 8 -10 5 2 33 14 33 5 0 25 12 44 28 33 26 45 52 23 52 -5
0 -7 5 -4 10 7 12 55 13 55 2z m-6867 -38 c25 -32 45 -79 46 -110 1 -12 11
-32 24 -44 26 -25 110 -60 144 -60 12 0 32 -14 47 -32 15 -18 32 -39 38 -47 6
-8 12 -35 12 -60 1 -40 -5 -54 -48 -111 -58 -77 -82 -127 -91 -197 -4 -29 -11
-53 -16 -53 -5 0 -9 -9 -9 -20 0 -11 5 -20 12 -20 6 0 8 -3 5 -7 -12 -11 25
-43 50 -43 22 0 93 59 93 77 0 15 52 48 104 66 65 22 145 23 185 2 24 -12 31
-12 31 -3 1 16 40 -30 40 -46 0 -18 46 -66 64 -66 9 0 16 -4 16 -9 0 -8 108
-61 124 -61 21 0 98 -44 102 -58 3 -9 10 -26 15 -37 7 -15 6 -29 -5 -50 -9
-17 -16 -35 -16 -41 0 -19 -72 -45 -134 -48 -58 -4 -60 -3 -103 39 -24 24 -65
51 -91 61 -26 9 -52 23 -58 31 -6 7 -17 13 -24 13 -8 0 -23 9 -35 20 -18 17
-30 19 -65 14 -23 -4 -54 -17 -68 -30 -13 -13 -28 -24 -33 -24 -4 0 -10 -8
-13 -17 -3 -10 -41 -34 -84 -54 -77 -35 -78 -36 -207 -34 -110 1 -137 4 -172
21 -36 18 -48 19 -87 10 -41 -9 -47 -14 -52 -44 -4 -18 -4 -36 0 -39 3 -4 -6
-19 -21 -35 -55 -57 -149 -22 -123 47 5 14 6 25 2 25 -4 0 2 7 12 15 16 12 18
22 12 72 -4 31 -13 71 -21 87 -8 16 -15 41 -15 56 0 29 -15 40 -55 40 -14 0
-25 7 -27 17 -3 15 -4 15 -21 -1 -14 -15 -27 -17 -63 -12 -49 6 -98 -12 -143
-55 -18 -17 -39 -23 -92 -27 -59 -4 -71 -8 -94 -33 -14 -16 -25 -33 -25 -39 0
-5 -12 -17 -27 -27 -16 -10 -31 -21 -34 -26 -12 -17 -78 -9 -105 12 -15 12
-33 21 -40 21 -15 0 -20 18 -28 100 -6 60 10 100 41 100 9 0 24 7 34 16 10 9
32 17 50 18 18 1 35 8 37 15 2 7 18 26 34 42 31 29 45 33 151 44 31 4 57 11
57 16 0 5 7 9 15 9 8 0 15 -4 15 -9 0 -6 12 -6 30 0 22 8 41 7 77 -5 27 -8 69
-18 94 -21 44 -7 48 -5 85 32 22 22 46 42 54 45 13 4 13 7 1 21 -11 15 -11 17
2 17 11 0 18 14 23 48 4 32 15 57 35 77 23 25 59 91 59 110 0 11 -28 4 -39 -9
-18 -21 -62 -5 -82 30 -10 16 -18 46 -18 66 -1 35 2 38 37 47 20 6 42 11 49
11 6 0 29 18 50 41 106 113 118 123 173 143 32 11 81 -3 103 -30z m7302 16 c3
-5 1 -10 -4 -10 -6 0 -11 5 -11 10 0 6 2 10 4 10 3 0 8 -4 11 -10z m-1085
-222 c0 -9 4 -8 10 2 8 12 10 12 10 -5 -1 -17 -28 -67 -31 -54 -8 40 -8 69 0
69 6 0 11 -6 11 -12z m134 -44 c4 -14 4 -29 1 -35 -12 -19 -85 8 -85 33 0 5 7
20 16 33 15 23 17 23 39 9 13 -8 26 -26 29 -40z m-999 36 c-3 -6 1 -13 9 -16
20 -8 21 -24 2 -24 -7 0 -25 -9 -40 -21 -21 -17 -29 -19 -41 -9 -12 10 -15 9
-15 -7 0 -15 -13 -22 -62 -35 -35 -8 -71 -19 -80 -23 -11 -4 -18 -3 -18 4 0 6
8 11 19 11 10 0 21 9 24 21 3 12 13 20 24 19 34 -4 54 0 48 9 -3 5 7 19 22 30
16 11 33 25 39 30 6 5 24 11 40 14 16 2 30 5 32 6 2 0 0 -4 -3 -9z m1121 -15
c4 -8 13 -15 21 -15 9 0 14 -9 13 -22 -5 -56 14 -69 25 -18 5 23 16 34 43 46
20 8 42 12 49 10 19 -8 34 -53 27 -82 l-7 -26 -119 6 c-66 3 -128 11 -139 16
-21 12 -24 35 -9 74 8 22 16 26 50 26 27 0 43 -5 46 -15z m253 -32 c0 -16 -3
-22 -6 -14 -4 11 -7 11 -14 0 -4 -7 -10 -11 -13 -8 -5 4 24 48 32 49 1 0 2
-12 1 -27z m-5612 -75 c10 -17 11 -32 0 -39 -4 -3 7 -21 26 -40 32 -32 38 -34
103 -34 53 0 73 -4 87 -17 24 -25 21 -42 -8 -58 -13 -7 -23 -16 -20 -19 2 -4
0 -13 -5 -21 -13 -22 -98 -13 -146 15 -23 13 -43 23 -45 21 -2 -2 -17 -7 -34
-10 -16 -3 -55 -13 -85 -23 -68 -21 -147 -20 -169 2 -12 12 -13 18 -4 23 6 4
13 33 14 64 1 31 8 70 15 86 11 28 13 29 65 21 30 -4 77 -8 104 -8 46 0 48 1
31 14 -19 14 -18 15 5 24 34 14 56 13 66 -1z m-479 -12 c-13 -14 -28 -12 -28
5 0 5 9 9 20 9 17 0 19 -2 8 -14z m6161 -60 c1 -5 -2 -6 -6 -3 -3 4 -11 3 -17
-2 -6 -4 -42 -11 -81 -14 -38 -3 -63 -4 -55 -1 8 3 30 12 48 20 95 43 97 44
104 26 4 -9 7 -21 7 -26z m-869 30 c0 -3 -4 -8 -10 -11 -5 -3 -10 -1 -10 4 0
6 5 11 10 11 6 0 10 -2 10 -4z m960 -55 c15 -30 -13 -55 -43 -39 l-22 13 23 3
c27 4 28 10 5 28 -17 12 -16 13 4 14 12 0 27 -9 33 -19z m388 -31 c-8 -13 -15
-15 -19 -8 -8 12 12 38 23 31 4 -2 2 -13 -4 -23z m-4292 -245 c11 -8 41 -14
72 -15 35 0 52 -4 52 -12 0 -20 130 -68 183 -68 26 0 64 -7 85 -17 20 -9 41
-17 47 -17 5 -1 15 -11 21 -24 6 -13 23 -35 37 -50 14 -15 27 -36 29 -47 2
-11 10 -19 16 -17 7 1 12 -2 12 -7 0 -5 12 -12 28 -16 15 -4 21 -10 15 -12 -7
-3 -13 -13 -13 -23 0 -25 -10 -30 -37 -19 -17 6 -23 16 -23 38 0 32 -6 36 -80
46 -25 4 -49 10 -55 15 -5 4 -28 11 -50 15 -22 4 -45 11 -51 16 -6 5 -34 15
-63 22 -28 7 -51 17 -51 22 3 14 -24 24 -37 13 -9 -7 -13 -7 -13 0 0 6 -28 13
-62 15 -120 10 -183 19 -200 28 -20 11 -28 73 -14 107 8 19 16 22 71 22 38 0
68 -5 81 -15z m-256 -147 c0 -22 -35 -58 -57 -58 -19 0 -29 30 -13 40 7 4 10
12 6 18 -3 6 2 12 11 14 44 9 53 6 53 -14z m4290 -38 c0 -12 -28 -25 -36 -17
-9 9 6 27 22 27 8 0 14 -5 14 -10z m-50 -52 c0 -6 -7 -7 -16 -4 -9 3 -18 6
-20 6 -3 0 -3 4 1 10 7 11 35 2 35 -12z m-40 -22 c0 -21 -20 -30 -33 -17 -9 9
-8 14 3 21 21 14 30 12 30 -4z m581 -6 c19 -11 27 -40 11 -40 -17 0 -53 -152
-41 -171 5 -9 31 -13 88 -12 56 1 83 -2 91 -12 8 -9 8 -15 0 -20 -15 -10 -12
-25 6 -25 14 0 13 -5 -5 -36 -12 -20 -20 -39 -17 -41 6 -6 -19 -33 -29 -33 -4
0 -5 5 -3 11 6 18 -57 79 -81 79 -11 0 -21 5 -21 10 0 6 7 10 16 10 8 0 12 5
9 10 -3 6 -14 10 -23 10 -10 0 -25 9 -35 20 -21 25 -44 26 -51 3 -3 -10 -4 -6
-2 9 2 19 -1 25 -12 21 -12 -5 -12 -3 -1 15 11 17 11 28 1 55 -16 46 -15 86 3
93 8 4 15 12 15 20 0 14 27 33 48 34 7 0 22 -5 33 -10z m-601 -30 c16 -9 17
-15 8 -40 -6 -19 -17 -30 -29 -30 -10 0 -19 -2 -19 -4 0 -2 -3 -11 -6 -19 -3
-9 3 -17 18 -21 21 -6 21 -7 6 -17 -10 -5 -18 -17 -18 -24 0 -25 -46 -18 -64
10 -21 32 -20 70 2 95 9 11 25 29 35 40 19 22 39 25 67 10z m117 -77 c-4 -17
-4 -17 -12 0 -4 9 -4 25 0 35 8 16 8 16 12 0 3 -10 3 -26 0 -35z m-1866 -1
c-5 -10 -17 -24 -25 -32 -9 -7 -16 -18 -16 -26 0 -7 -8 -15 -18 -19 -11 -3
-24 -17 -30 -30 -6 -14 -18 -25 -27 -25 -8 0 -15 -8 -15 -17 0 -10 -12 -26
-25 -36 -24 -17 -25 -17 -25 3 0 12 35 56 88 110 86 88 113 109 93 72z m1903
-161 c3 -5 -3 -11 -14 -14 -13 -3 -20 0 -20 9 0 15 26 19 34 5z m-2141 -33
c-13 -12 -26 -19 -29 -15 -4 4 1 14 12 22 29 22 41 18 17 -7z m2562 -14 c35
-38 31 -50 -5 -17 -27 24 -38 43 -25 43 3 0 17 -12 30 -26z m-2805 -44 c0 -15
-48 -42 -61 -34 -8 4 0 13 22 25 41 22 39 21 39 9z m2346 -47 c-10 -10 -19 5
-10 18 6 11 8 11 12 0 2 -7 1 -15 -2 -18z m-2607 -106 c-2 -1 -13 -9 -24 -17
-19 -14 -19 -14 -6 3 7 9 18 17 24 17 6 0 8 -1 6 -3z m-49 -15 c0 -14 -35 -37
-60 -40 -14 -1 -37 -15 -51 -30 -22 -24 -29 -27 -42 -17 -21 15 -22 25 -3 25
7 0 26 10 41 22 39 30 115 57 115 40z m-190 -80 c0 -9 -92 -72 -104 -72 -4 0
-4 6 0 13 4 7 3 8 -2 4 -5 -5 -9 -14 -9 -20 0 -15 -78 -87 -94 -87 -6 0 -1 11
11 25 12 14 27 25 34 25 8 0 11 6 8 14 -5 12 -12 11 -42 -6 -20 -11 -73 -41
-117 -65 -44 -24 -89 -52 -100 -62 -28 -26 -60 -41 -84 -41 -12 0 -20 -3 -20
-7 3 -21 -4 -31 -36 -49 -19 -10 -35 -22 -35 -26 0 -14 -112 -90 -146 -100
-19 -5 -34 -13 -34 -18 0 -6 -9 -10 -19 -10 -10 0 -22 -8 -25 -17 -6 -14 -9
-15 -15 -4 -6 9 -11 10 -15 2 -4 -6 -20 -11 -37 -11 -16 0 -29 -5 -29 -11 0
-5 -16 -17 -35 -25 -20 -8 -36 -22 -36 -32 -1 -16 -2 -16 -6 1 -5 21 -17 21
-46 3 -12 -8 -38 -17 -57 -20 -42 -7 -63 -29 -106 -113 -18 -34 -35 -57 -38
-50 -4 7 -4 2 -2 -10 3 -15 -1 -23 -10 -23 -8 0 -14 -4 -14 -10 0 -5 -11 -12
-24 -16 -25 -6 -40 -29 -31 -45 4 -5 0 -6 -8 -3 -8 3 -18 -6 -25 -21 -7 -14
-19 -28 -27 -31 -8 -4 -15 -12 -15 -20 0 -8 -3 -14 -7 -14 -9 0 -33 -48 -33
-66 0 -7 -8 -19 -18 -26 -20 -14 -72 -105 -72 -125 0 -7 -6 -16 -12 -20 -7 -4
-22 -25 -32 -45 -11 -21 -23 -38 -27 -38 -5 0 1 17 13 38 11 20 32 60 46 87
14 28 45 79 68 115 23 36 52 85 64 110 21 41 88 134 133 184 29 33 16 76 -24
76 -23 0 -44 26 -27 33 10 4 10 7 1 14 -7 5 -14 24 -15 43 -3 39 -2 40 107 43
70 3 95 17 170 101 48 54 52 56 102 56 33 0 57 -6 67 -15 13 -14 22 -13 80 9
37 14 110 47 164 75 53 27 142 72 197 99 55 27 118 58 140 70 63 34 289 141
298 142 4 0 7 -4 7 -8z m265 -12 c-3 -5 -10 -10 -16 -10 -5 0 -9 5 -9 10 0 6
7 10 16 10 8 0 12 -4 9 -10z m3605 -70 c0 -5 -2 -10 -4 -10 -3 0 -8 5 -11 10
-3 6 -1 10 4 10 6 0 11 -4 11 -10z m44 -25 c11 -8 15 -15 10 -15 -6 0 -19 7
-30 15 -10 8 -14 14 -9 14 6 0 19 -6 29 -14z m-4170 -110 c-4 -8 -11 -15 -16
-15 -6 0 -5 6 2 15 7 8 14 15 16 15 2 0 1 -7 -2 -15z m-2406 -25 c9 -5 34 -16
55 -24 22 -9 37 -22 37 -32 0 -14 8 -16 51 -12 78 8 89 2 89 -44 0 -55 -27
-83 -74 -74 -19 4 -42 14 -51 22 -8 8 -24 16 -34 17 -11 0 -18 4 -15 8 2 3
-19 16 -46 27 -53 22 -68 48 -56 97 7 27 17 30 44 15z m6849 -181 c14 -62 8
-74 -30 -57 -27 13 -35 32 -17 43 6 3 10 22 10 41 0 54 23 37 37 -27z m-5657
-279 c0 -5 8 -10 18 -10 38 -1 61 -35 66 -99 5 -59 4 -61 -19 -61 -13 0 -26
-4 -30 -9 -3 -6 -13 -9 -23 -9 -9 1 -33 -2 -54 -6 l-36 -7 -4 59 c-2 49 0 58
13 55 17 -5 43 42 33 58 -6 11 13 39 27 39 5 0 9 -4 9 -10z m-136 -67 c0 -13
3 -23 8 -23 4 0 8 -18 8 -39 0 -29 5 -41 18 -44 9 -3 -7 -5 -35 -6 -30 0 -53
3 -53 9 0 6 -9 10 -21 10 -13 0 -18 -4 -13 -12 5 -8 2 -9 -9 -5 -10 4 -17 2
-17 -5 0 -6 -27 -37 -60 -69 -52 -50 -64 -57 -83 -49 -12 5 -35 11 -50 15 -19
4 -27 11 -23 20 2 7 0 15 -7 18 -7 2 -3 14 11 34 12 17 22 39 22 50 0 17 52
82 68 84 4 1 33 3 64 4 32 2 68 11 80 20 13 9 38 15 58 13 29 -3 35 -7 34 -25z
m246 -52 c0 -6 -4 -13 -10 -16 -5 -3 -10 1 -10 9 0 9 5 16 10 16 6 0 10 -4 10
-9z m2127 -1156 c49 -21 160 -137 203 -213 30 -53 40 -63 70 -68 119 -20 135
-41 127 -158 -7 -97 -26 -152 -60 -167 -18 -8 -26 -24 -36 -72 -25 -121 -98
-212 -211 -266 -48 -22 -69 -26 -156 -26 -94 0 -104 2 -168 34 -114 58 -199
174 -213 289 -5 42 -9 51 -29 56 -36 9 -54 56 -61 160 l-6 95 29 29 c17 16 57
39 91 52 56 20 62 26 84 73 75 160 211 234 336 182z m1617 -207 c3 -13 6 -40
6 -60 0 -43 0 -43 41 -22 41 21 99 11 130 -22 22 -23 24 -36 27 -138 4 -125 3
-129 -63 -116 l-30 5 -6 89 c-7 103 -26 127 -74 92 -15 -11 -18 -28 -19 -102
l-1 -89 -46 -3 -46 -3 -7 68 c-5 55 -9 255 -7 311 1 8 17 12 45 12 37 0 45 -4
50 -22z m1169 -88 c4 -47 11 -125 16 -175 6 -60 6 -94 -1 -102 -13 -16 -70
-17 -85 -2 -8 8 -17 8 -31 0 -48 -25 -122 -4 -157 45 -43 63 -37 175 13 214
27 22 91 27 123 10 18 -10 19 -7 19 45 l0 56 48 -3 47 -3 8 -85z m-708 4 c43
-20 64 -44 80 -90 23 -68 15 -74 -92 -74 -71 0 -94 -3 -90 -12 2 -9 26 -13 69
-13 68 0 98 -14 98 -45 0 -35 -111 -61 -174 -40 -106 35 -148 153 -84 235 41
53 128 70 193 39z m-696 -8 c91 -1 89 4 90 -176 1 -135 -6 -159 -51 -193 -38
-28 -134 -35 -176 -13 -42 22 -45 30 -27 66 17 32 25 36 42 19 15 -15 80 -14
98 1 23 19 20 43 -4 30 -11 -5 -38 -10 -61 -10 -32 0 -48 6 -70 28 -50 50 -63
165 -25 215 15 21 85 48 99 39 5 -3 43 -6 85 -6z m1016 2 c44 -20 62 -64 70
-169 l7 -97 -28 -5 c-16 -3 -68 -4 -116 -3 -80 1 -90 3 -114 27 -16 16 -28 41
-31 67 -5 35 -2 44 22 66 l27 25 -21 22 c-12 13 -21 29 -21 36 0 35 147 58
205 31z m-1338 -8 c33 1 63 -2 66 -7 7 -12 17 -126 19 -221 1 -69 -2 -88 -19
-110 -41 -56 -125 -76 -202 -48 -46 16 -58 37 -43 71 10 22 17 26 35 20 71
-23 127 -14 127 22 0 11 -4 11 -21 2 -13 -6 -42 -9 -68 -6 -36 4 -52 12 -73
38 -15 18 -30 45 -33 61 -6 26 -8 27 -19 13 -9 -13 -34 -18 -99 -22 -58 -4
-86 -10 -84 -17 5 -16 72 -19 98 -5 20 10 26 8 46 -16 23 -26 23 -28 7 -46
-25 -28 -110 -44 -160 -30 -52 14 -110 75 -120 126 -10 53 10 110 48 137 49
34 142 37 188 6 19 -13 45 -42 56 -65 l22 -42 6 40 c12 77 61 115 131 103 17
-3 58 -5 92 -4z m-4145 -35 c-3 -27 -44 -74 -65 -75 -5 0 -16 -7 -24 -16 -9
-8 -19 -12 -22 -7 -3 5 -18 14 -33 20 -32 14 -34 23 -13 63 11 20 25 31 48 34
74 12 83 13 97 12 10 -1 14 -11 12 -31z m6072 9 c7 -19 -1 -34 -18 -34 -18 0
-39 27 -31 40 10 16 42 12 49 -6z m11 -111 c3 -32 8 -77 11 -101 4 -33 2 -43
-11 -48 -27 -11 -34 7 -41 109 -7 94 -6 97 14 97 18 0 21 -8 27 -57z m186 42
c67 -35 92 -138 44 -189 -28 -30 -62 -33 -112 -9 -75 35 -97 130 -44 184 33
33 67 37 112 14z m-271 -150 c10 -12 10 -18 0 -30 -25 -30 -61 -7 -46 30 3 8
12 15 19 15 8 0 20 -7 27 -15z m-6190 -17 c21 -7 41 -20 43 -29 6 -21 -10 -49
-28 -49 -8 0 -15 -7 -15 -16 0 -8 -4 -13 -8 -10 -9 5 -21 -14 -42 -71 -7 -18
-16 -33 -21 -33 -5 0 -9 -9 -9 -20 0 -12 -7 -20 -16 -20 -9 0 -23 -8 -30 -18
-18 -24 -91 -23 -126 3 -31 23 -37 62 -10 72 9 4 32 22 49 40 18 18 38 33 44
33 6 0 9 9 6 20 -3 11 -1 36 4 55 7 26 17 36 37 41 15 3 32 7 37 9 20 7 46 5
85 -7z"/>
<path d="M3895 3830 c3 -5 10 -10 16 -10 5 0 9 5 9 10 0 6 -7 10 -16 10 -8 0
-12 -4 -9 -10z"/>
<path d="M4785 2796 c-126 -68 -145 -80 -145 -93 0 -7 -7 -13 -15 -13 -8 0
-15 -4 -15 -10 0 -5 2 -10 5 -10 9 0 102 54 140 82 22 16 49 35 60 43 34 23
12 24 -30 1z"/>
<path d="M4575 2650 c3 -5 8 -10 11 -10 2 0 4 5 4 10 0 6 -5 10 -11 10 -5 0
-7 -4 -4 -10z"/>
<path d="M4295 2540 c-3 -5 1 -10 9 -10 9 0 16 5 16 10 0 6 -4 10 -9 10 -6 0
-13 -4 -16 -10z"/>
<path d="M6035 1105 c6 -2 31 -6 57 -10 31 -4 61 -17 91 -40 49 -38 147 -175
147 -206 0 -18 -7 -20 -72 -18 -40 0 -84 0 -98 0 -56 -2 -137 6 -160 16 -14 6
-51 13 -82 17 -64 8 -67 13 -42 72 20 49 7 37 -26 -24 -20 -38 -32 -48 -66
-58 -60 -17 -102 -41 -115 -66 -12 -23 -6 -129 11 -172 5 -13 22 -28 38 -34
27 -9 30 -15 34 -64 9 -116 96 -236 206 -285 112 -49 269 -23 358 59 53 49
104 147 104 199 0 46 8 69 25 69 7 0 22 8 34 18 17 13 24 36 33 106 11 86 10
90 -10 106 -12 10 -42 21 -68 25 -69 10 -71 12 -109 84 -41 78 -124 169 -177
194 -20 9 -56 17 -80 16 -23 0 -38 -2 -33 -4z m-74 -281 c24 -6 39 -48 39
-105 0 -48 -1 -51 -37 -65 -20 -9 -64 -17 -97 -17 l-61 -2 0 40 c0 22 4 56 8
77 7 33 6 36 -12 31 -22 -6 -64 14 -56 26 9 16 55 18 67 4 10 -13 13 -12 20 7
7 20 13 21 61 15 28 -3 59 -8 68 -11z m349 -23 c26 -7 49 -64 65 -160 l7 -44
-46 6 c-57 8 -139 42 -162 68 -20 22 -15 116 7 130 16 10 93 10 129 0z m-202
-23 c7 -7 12 -34 12 -60 0 -38 5 -54 24 -73 22 -22 139 -65 218 -80 45 -9 51
-24 38 -95 -22 -118 -110 -207 -232 -235 -45 -10 -87 -13 -117 -9 -151 21
-265 146 -287 313 -4 28 -3 51 2 52 5 0 27 2 50 4 69 5 148 24 180 44 31 19
44 51 44 111 0 14 3 30 7 33 11 11 48 8 61 -5z m300 6 c12 -4 22 -10 22 -15 0
-6 -10 -13 -22 -18 -25 -10 -48 3 -48 25 0 15 12 17 48 8z m-626 -76 c7 -12 2
-62 -9 -80 -2 -5 -13 -8 -24 -8 -21 0 -49 51 -49 91 0 19 4 21 37 16 20 -4 40
-12 45 -19z m686 -55 c-3 -46 -4 -48 -33 -48 -26 0 -31 5 -39 38 -11 44 0 57
47 57 27 0 28 -1 25 -47z"/>
<path d="M5995 1090 c-3 -6 1 -7 9 -4 18 7 21 14 7 14 -6 0 -13 -4 -16 -10z"/>
<path d="M8772 738 c-17 -17 -15 -64 4 -82 19 -20 58 -21 73 -2 13 15 4 77
-13 88 -17 12 -51 9 -64 -4z"/>
<path d="M8130 765 c-11 -13 -6 -15 34 -15 45 0 61 12 30 24 -26 10 -51 7 -64
-9z"/>
<path d="M7452 744 c-38 -26 -22 -94 23 -94 44 0 55 10 55 51 0 33 -4 41 -26
49 -31 12 -25 13 -52 -6z"/>
<path d="M8410 760 c-11 -7 -7 -10 17 -10 17 0 43 -4 56 -9 29 -11 42 -4 26
16 -13 15 -77 17 -99 3z"/>
<path d="M8451 671 c-12 -8 -12 -12 -2 -25 17 -21 60 -21 68 0 10 27 -35 44
-66 25z"/>
<path d="M7118 739 c-24 -14 -23 -61 1 -83 14 -13 28 -16 50 -11 27 6 31 11
31 38 0 18 -4 37 -8 44 -11 17 -54 24 -74 12z"/>
<path d="M6790 725 c-11 -13 -6 -15 34 -15 45 0 61 12 30 24 -26 10 -51 7 -64
-9z"/>
<path d="M9257 693 c-4 -3 -7 -24 -7 -45 0 -50 29 -80 73 -76 29 3 32 6 35 41
5 54 -19 87 -62 87 -18 0 -36 -3 -39 -7z"/>
<path d="M9008 5673 c6 -2 18 -2 25 0 6 3 1 5 -13 5 -14 0 -19 -2 -12 -5z"/>
<path d="M6560 5655 c33 -19 45 -19 26 0 -8 8 -23 15 -33 15 -14 -1 -13 -4 7
-15z"/>
<path d="M8985 5650 c3 -5 18 -10 33 -10 21 0 24 2 12 10 -20 13 -53 13 -45 0z"/>
<path d="M6497 5613 c4 -11 2 -14 -5 -9 -8 5 -10 2 -6 -8 7 -19 7 -19 39 -4
34 15 32 35 -4 36 -23 0 -29 -3 -24 -15z"/>
<path d="M8859 5605 c-1 -5 -3 -20 -4 -32 -1 -12 -5 -28 -8 -36 -4 -11 0 -15
12 -14 12 1 17 6 13 16 -4 10 -1 12 7 6 10 -6 11 -2 6 16 -10 32 -24 56 -26
44z"/>
<path d="M6258 5562 c-23 -4 -38 -61 -38 -139 0 -92 30 -142 64 -108 8 8 19
15 24 15 11 0 22 34 22 72 0 15 7 45 16 67 15 39 15 41 -8 64 -25 25 -53 35
-80 29z"/>
<path d="M7748 5543 c7 -3 16 -2 19 1 4 3 -2 6 -13 5 -11 0 -14 -3 -6 -6z"/>
<path d="M8980 5504 c-14 -7 -29 -15 -34 -17 -9 -3 16 -159 36 -229 l11 -38
22 48 c18 36 24 69 26 147 4 94 3 100 -16 102 -11 1 -31 -5 -45 -13z"/>
<path d="M8825 5470 c3 -5 8 -10 11 -10 2 0 4 5 4 10 0 6 -5 10 -11 10 -5 0
-7 -4 -4 -10z"/>
<path d="M8907 5418 c-21 -22 -18 -32 7 -22 9 3 16 15 16 25 0 23 0 23 -23 -3z"/>
<path d="M8841 5388 c-1 -15 4 -30 9 -33 12 -7 12 12 0 40 -8 18 -9 17 -9 -7z"/>
<path d="M6442 5335 c-7 -14 -12 -35 -12 -46 0 -12 -8 -23 -20 -26 -33 -9 -24
-83 10 -83 43 0 78 22 95 60 17 37 17 39 -6 79 -26 47 -51 52 -67 16z"/>
<path d="M8827 5290 c-4 -19 -13 -30 -23 -30 -15 0 -15 -2 -1 -23 25 -39 39
-135 25 -174 -7 -18 -16 -33 -20 -33 -4 0 -8 -5 -8 -11 0 -8 4 -8 13 -2 6 6
25 13 42 17 35 9 54 33 78 101 16 47 16 52 0 97 -9 27 -22 48 -28 48 -6 0 -18
9 -28 20 -24 29 -44 25 -50 -10z"/>
<path d="M3925 5130 c-4 -6 5 -10 19 -10 14 0 26 5 26 10 0 6 -9 10 -19 10
-11 0 -23 -4 -26 -10z"/>
<path d="M0 5058 l1 -63 19 23 c10 13 17 28 15 35 -2 7 -6 24 -9 40 -11 49
-26 28 -26 -35z"/>
<path d="M2000 5050 c0 -5 5 -10 11 -10 5 0 7 5 4 10 -3 6 -8 10 -11 10 -2 0
-4 -4 -4 -10z"/>
<path d="M7260 5056 c0 -2 7 -7 16 -10 8 -3 12 -2 9 4 -6 10 -25 14 -25 6z"/>
<path d="M8740 4923 c0 -29 16 -45 41 -44 55 2 69 6 75 24 8 26 -3 34 -27 19
-17 -11 -25 -11 -44 2 -31 21 -45 20 -45 -1z"/>
<path d="M8692 4773 c2 -24 8 -29 36 -31 19 -2 41 -1 49 2 22 9 -3 36 -33 36
-12 0 -26 5 -29 10 -12 20 -26 9 -23 -17z"/>
<path d="M8775 4730 c-3 -5 1 -10 9 -10 9 0 16 5 16 10 0 6 -4 10 -9 10 -6 0
-13 -4 -16 -10z"/>
<path d="M8566 4645 c-3 -9 -6 -22 -5 -28 0 -7 5 -1 10 12 5 13 8 26 5 28 -2
2 -6 -3 -10 -12z"/>
<path d="M8516 4491 c-16 -17 -16 -18 8 -14 16 3 23 10 19 19 -7 18 -7 18 -27
-5z"/>
<path d="M7327 4133 c-4 -3 -7 -11 -7 -17 0 -6 5 -5 12 2 6 6 9 14 7 17 -3 3
-9 2 -12 -2z"/>
<path d="M8520 3955 c0 -8 2 -15 4 -15 2 0 6 7 10 15 3 8 1 15 -4 15 -6 0 -10
-7 -10 -15z"/>
<path d="M8551 3954 c0 -11 3 -14 6 -6 3 7 2 16 -1 19 -3 4 -6 -2 -5 -13z"/>
<path d="M8311 3784 c0 -11 3 -14 6 -6 3 7 2 16 -1 19 -3 4 -6 -2 -5 -13z"/>
<path d="M7120 3554 c0 -38 3 -45 16 -40 9 3 34 6 57 6 33 0 38 3 29 12 -7 7
-18 13 -25 14 -7 0 -19 2 -28 2 -9 1 -20 13 -23 27 -10 41 -26 28 -26 -21z"/>
<path d="M8320 3540 c0 -5 5 -10 10 -10 6 0 10 5 10 10 0 6 -4 10 -10 10 -5 0
-10 -4 -10 -10z"/>
<path d="M7265 2710 c3 -5 8 -10 11 -10 2 0 4 5 4 10 0 6 -5 10 -11 10 -5 0
-7 -4 -4 -10z"/>
</g>
</svg>
